<svg width="469" height="359" viewBox="0 0 469 359" fill="none" xmlns="http://www.w3.org/2000/svg">
<g clip-path="url(#clip0)">
<path d="M107.993 248.449L144.321 191.544L62.9617 140.051L20.9678 205.858L88.2515 248.449H107.993Z" fill="white"/>
<path d="M159.448 266.195H69.5032V248.158H159.448V266.195ZM70.6713 265.032H158.28V249.322H70.6713V265.032Z" fill="#3F3D56"/>
<path d="M148.351 262.995C151.577 262.995 154.192 260.39 154.192 257.177C154.192 253.963 151.577 251.358 148.351 251.358C145.125 251.358 142.51 253.963 142.51 257.177C142.51 260.39 145.125 262.995 148.351 262.995Z" fill="#03A595"/>
<path d="M131.998 262.995C135.223 262.995 137.838 260.39 137.838 257.177C137.838 253.963 135.223 251.358 131.998 251.358C128.772 251.358 126.157 253.963 126.157 257.177C126.157 260.39 128.772 262.995 131.998 262.995Z" fill="#03A595"/>
<path d="M115.644 262.995C118.869 262.995 121.484 260.39 121.484 257.177C121.484 253.963 118.869 251.358 115.644 251.358C112.418 251.358 109.803 253.963 109.803 257.177C109.803 260.39 112.418 262.995 115.644 262.995Z" fill="#03A595"/>
<path d="M99.2901 262.995C102.516 262.995 105.131 260.39 105.131 257.177C105.131 253.963 102.516 251.358 99.2901 251.358C96.0644 251.358 93.4495 253.963 93.4495 257.177C93.4495 260.39 96.0644 262.995 99.2901 262.995Z" fill="#03A595"/>
<path d="M82.9366 262.995C86.1622 262.995 88.7772 260.39 88.7772 257.177C88.7772 253.963 86.1622 251.358 82.9366 251.358C79.7109 251.358 77.0959 253.963 77.0959 257.177C77.0959 260.39 79.7109 262.995 82.9366 262.995Z" fill="#03A595"/>
<path d="M266.331 65.7488V21.5284H288.525V0H179.89V108.224H272.756V97.634C272.756 89.3136 279.531 82.6224 287.825 82.6224H288.525V65.7488H266.331Z" fill="white"/>
<path d="M386.648 279.287H314.224V294.415H386.648V279.287Z" fill="#03A595"/>
<path d="M402.417 204.81H296.118V218.775H402.417V204.81Z" fill="white"/>
<path d="M454.398 357.836H0V359H454.398V357.836Z" fill="#3F3D56"/>
<path d="M420.64 359H287.825C279.181 359 272.172 352.018 272.172 343.406V97.634C272.172 89.0227 279.181 82.0405 287.825 82.0405H420.64C429.284 82.0405 436.293 89.0227 436.293 97.634V343.406C436.293 352.018 429.284 359 420.64 359ZM287.825 83.2042C279.823 83.2042 273.34 89.6627 273.34 97.634V343.406C273.34 351.378 279.823 357.836 287.825 357.836H420.64C428.642 357.836 435.125 351.378 435.125 343.406V97.634C435.125 89.6627 428.642 83.2042 420.64 83.2042H287.825Z" fill="#3F3D56"/>
<path d="M338.463 93.6774C336.535 93.6774 334.958 92.1065 334.958 90.1864C334.958 88.2663 336.535 86.6953 338.463 86.6953C340.39 86.6953 341.967 88.2663 341.967 90.1864C341.967 92.1065 340.39 93.6774 338.463 93.6774ZM338.463 87.859C337.178 87.859 336.126 88.9063 336.126 90.1864C336.126 91.4664 337.178 92.5138 338.463 92.5138C339.748 92.5138 340.799 91.4664 340.799 90.1864C340.799 88.9063 339.748 87.859 338.463 87.859Z" fill="#3F3D56"/>
<path d="M372.922 89.6045H347.224V90.7682H372.922V89.6045Z" fill="#3F3D56"/>
<path d="M425.779 98.9141V145.462C399.964 145.462 379.055 124.632 379.055 98.9141H425.779Z" fill="#03A595"/>
<path d="M426.364 343.29H282.101V98.3322H426.364V343.29ZM283.269 342.126H425.195V99.4959H283.269V342.126Z" fill="#3F3D56"/>
<path opacity="0.1" d="M391.904 142.553C400.613 142.553 407.674 135.519 407.674 126.843C407.674 118.166 400.613 111.133 391.904 111.133C383.195 111.133 376.135 118.166 376.135 126.843C376.135 135.519 383.195 142.553 391.904 142.553Z" fill="black"/>
<path d="M389.568 144.298C398.277 144.298 405.338 137.265 405.338 128.588C405.338 119.912 398.277 112.878 389.568 112.878C380.859 112.878 373.798 119.912 373.798 128.588C373.798 137.265 380.859 144.298 389.568 144.298Z" fill="#03A595"/>
<path d="M310.72 108.224H288.525V116.37H310.72V108.224Z" fill="#3F3D56"/>
<path d="M322.985 185.609H300.791V193.755H322.985V185.609Z" fill="#3F3D56"/>
<path d="M408.258 215.865H300.791V200.737H408.258V215.865ZM301.959 214.702H407.09V201.901H301.959V214.702Z" fill="#3F3D56"/>
<path d="M402.417 249.031H296.118V262.995H402.417V249.031Z" fill="white"/>
<path d="M322.985 229.83H300.791V237.976H322.985V229.83Z" fill="#3F3D56"/>
<path d="M408.258 260.086H300.791V244.958H408.258V260.086ZM301.959 258.922H407.09V246.122H301.959V258.922Z" fill="#3F3D56"/>
<path d="M391.32 290.924H317.729V274.632H391.32V290.924ZM318.897 289.76H390.152V275.796H318.897V289.76Z" fill="#3F3D56"/>
<path d="M405.338 210.047C405.338 213.247 402.709 215.866 399.497 215.866C397.745 215.866 396.109 215.109 395 213.771C392.955 211.269 393.306 207.603 395.817 205.567C398.329 203.53 402.008 203.879 404.053 206.381C404.637 207.08 404.987 207.836 405.221 208.709C405.279 209.116 405.338 209.582 405.338 210.047Z" fill="#03A595"/>
<path opacity="0.1" d="M405.338 210.047C405.338 213.247 402.709 215.865 399.497 215.865C397.745 215.865 396.109 215.109 395 213.771C394.883 213.305 394.824 212.84 394.824 212.374C394.824 209.174 397.453 206.556 400.665 206.556C402.417 206.556 404.053 207.312 405.162 208.651C405.279 209.116 405.338 209.582 405.338 210.047Z" fill="black"/>
<path d="M401.833 219.357C405.059 219.357 407.674 216.752 407.674 213.538C407.674 210.325 405.059 207.72 401.833 207.72C398.607 207.72 395.992 210.325 395.992 213.538C395.992 216.752 398.607 219.357 401.833 219.357Z" fill="#03A595"/>
<path d="M405.338 254.267C405.338 257.468 402.709 260.086 399.497 260.086C397.745 260.086 396.109 259.33 395 257.991C392.955 255.489 393.306 251.824 395.817 249.787C398.329 247.751 402.008 248.1 404.053 250.602C404.637 251.3 404.987 252.056 405.221 252.929C405.279 253.336 405.338 253.802 405.338 254.267Z" fill="#03A595"/>
<path opacity="0.1" d="M405.338 254.267C405.338 257.468 402.709 260.086 399.497 260.086C397.745 260.086 396.109 259.33 395 257.991C394.883 257.526 394.824 257.06 394.824 256.595C394.824 253.395 397.453 250.776 400.665 250.776C402.417 250.776 404.053 251.533 405.162 252.871C405.279 253.336 405.338 253.802 405.338 254.267Z" fill="black"/>
<path d="M401.833 263.577C405.059 263.577 407.674 260.972 407.674 257.759C407.674 254.545 405.059 251.94 401.833 251.94C398.607 251.94 395.992 254.545 395.992 257.759C395.992 260.972 398.607 263.577 401.833 263.577Z" fill="#03A595"/>
<path d="M303.711 27.9287H273.34V58.1848H303.711V27.9287Z" fill="white"/>
<path d="M391.904 50.0389C388.049 50.0389 384.896 46.8969 384.896 43.0567C384.896 39.2165 388.049 36.0746 391.904 36.0746C395.759 36.0746 398.913 39.2165 398.913 43.0567C398.913 46.8969 395.759 50.0389 391.904 50.0389ZM391.904 37.2382C388.692 37.2382 386.064 39.8566 386.064 43.0567C386.064 46.2569 388.692 48.8752 391.904 48.8752C395.117 48.8752 397.745 46.2569 397.745 43.0567C397.745 39.8566 395.117 37.2382 391.904 37.2382Z" fill="#3F3D56"/>
<path d="M237.712 147.207H222.527V132.079H237.712V147.207ZM223.695 146.044H236.544V133.243H223.695V146.044Z" fill="#3F3D56"/>
<path d="M469 260.086H453.814V244.958H469V260.086ZM454.983 258.922H467.832V246.122H454.983V258.922Z" fill="#3F3D56"/>
<path d="M220.775 264.741C224 264.741 226.615 262.136 226.615 258.922C226.615 255.709 224 253.104 220.775 253.104C217.549 253.104 214.934 255.709 214.934 258.922C214.934 262.136 217.549 264.741 220.775 264.741Z" fill="#03A595"/>
<path d="M33.2915 299.302C35.3882 299.302 37.0879 297.609 37.0879 295.52C37.0879 293.432 35.3882 291.738 33.2915 291.738C31.1948 291.738 29.4951 293.432 29.4951 295.52C29.4951 297.609 31.1948 299.302 33.2915 299.302Z" fill="#FF6584"/>
<path d="M52.5653 315.361H51.3972V358.651H52.5653V315.361Z" fill="#3F3D56"/>
<path d="M51.9813 321.471C55.3682 321.471 58.1139 318.736 58.1139 315.361C58.1139 311.987 55.3682 309.252 51.9813 309.252C48.5943 309.252 45.8486 311.987 45.8486 315.361C45.8486 318.736 48.5943 321.471 51.9813 321.471Z" fill="#3F3D56"/>
<path d="M51.9813 342.01C51.9813 342.01 51.1053 323.216 33.1162 325.369L51.9813 342.01Z" fill="#3F3D56"/>
<path d="M211.955 332.875L214.759 341.777L206.056 342.534L206.815 332.875H211.955Z" fill="#FFB9B9"/>
<path d="M205.297 251.125L209.385 289.702C209.385 289.702 214.467 323.74 213.474 329.035C212.481 334.388 213.707 335.144 213.707 335.144H206.056C206.056 335.144 206.29 331.828 204.771 330.315C203.253 328.802 204.012 324.206 204.012 324.206L184.621 265.323L173.641 298.313C173.641 298.313 171.83 334.621 171.597 335.144C171.363 335.668 170.604 342.534 170.604 342.534H161.2C161.2 342.534 162.485 338.461 160.675 337.181C158.864 335.901 157.346 336.948 158.864 334.621C160.383 332.351 160.908 329.559 160.383 328.278C159.857 326.998 159.857 321.936 159.857 321.936C159.857 321.936 160.616 253.395 164.938 251.125C169.26 248.856 205.297 251.125 205.297 251.125Z" fill="#2F2E41"/>
<path d="M167.216 345.443C167.216 345.443 171.597 344.803 171.597 345.036C171.597 345.268 176.853 359.349 171.597 359.116C166.34 358.884 146.54 356.091 147.825 350.854C149.11 345.617 155.652 347.188 155.652 347.188L161.551 343.93L167.216 345.443Z" fill="#2F2E41"/>
<path d="M210.086 340.963C210.086 340.963 205.706 340.323 205.706 340.555C205.706 340.788 200.449 354.869 205.706 354.636C210.962 354.403 230.762 351.611 229.477 346.374C228.192 341.137 221.65 342.708 221.65 342.708L215.751 339.45L210.086 340.963Z" fill="#2F2E41"/>
<path d="M190.754 285.513H174.809C173.699 279.229 173.699 272.887 174.809 266.603H190.754C188.943 272.77 189.002 279.345 190.754 285.513Z" fill="#03A595"/>
<path d="M184.329 178.685C189.877 178.685 194.375 174.205 194.375 168.678C194.375 163.15 189.877 158.67 184.329 158.67C178.781 158.67 174.283 163.15 174.283 168.678C174.283 174.205 178.781 178.685 184.329 178.685Z" fill="#FFB9B9"/>
<path d="M192.331 167.398C192.331 167.398 194.141 185.144 196.419 186.424C198.697 187.704 178.839 188.984 178.839 188.984C178.839 188.984 183.687 172.751 182.168 171.238C180.591 169.667 192.331 167.398 192.331 167.398Z" fill="#FFB9B9"/>
<path d="M170.896 185.9C170.896 185.9 178.021 179.035 186.198 180.315C194.375 181.595 200.216 183.107 200.216 183.107C200.216 183.107 212.715 189.682 212.948 195.035C213.182 200.388 208.334 220.404 208.334 220.404C208.334 220.404 206.056 253.162 205.764 253.162C205.472 253.162 162.719 252.638 162.719 252.638L170.604 209.989L170.896 185.9Z" fill="#3F3D56"/>
<path d="M172.59 246.994C174.225 247.46 177.087 246.82 180.066 245.831C185.381 244.085 191.046 241.234 191.046 241.234C191.046 241.234 209.385 233.845 214.759 230.063C220.132 226.281 216.569 211.036 216.569 211.036L208.393 213.596L208.918 222.964L188.768 235.881C185.614 236.172 182.46 236.812 179.423 237.743C176.036 238.848 172.765 240.594 171.538 243.212C171.363 243.62 171.246 244.027 171.13 244.492C170.954 245.947 171.48 246.703 172.59 246.994Z" fill="#FFB9B9"/>
<path opacity="0.15" d="M171.538 243.27C171.889 244.609 172.239 245.831 172.531 246.994C174.166 247.46 177.028 246.82 180.007 245.831L179.365 237.743C176.035 238.907 172.765 240.652 171.538 243.27Z" fill="black"/>
<path d="M175.218 206.207L176.736 219.647L179.248 252.871C179.248 252.871 193.265 269.686 185.38 270.21C177.496 270.734 173.174 253.686 173.174 253.686C173.174 253.686 165.289 226.804 165.522 221.218C165.756 215.633 165.522 206.265 165.522 206.265L175.218 206.207Z" fill="#FFB9B9"/>
<path d="M172.998 167.514C172.765 167.398 172.473 167.281 172.298 167.107C171.772 166.583 171.83 165.652 172.064 164.954C172.298 164.256 172.648 163.499 172.473 162.743C172.414 162.394 172.181 162.103 172.122 161.754C172.005 160.939 172.648 160.183 173.407 159.775C174.166 159.368 174.984 159.135 175.685 158.67C176.736 157.913 177.32 156.633 178.43 155.935C179.481 155.237 180.825 155.237 182.11 155.237H185.906C187.892 155.237 190.053 155.295 191.513 156.633C191.98 157.041 192.331 157.506 192.74 157.913C193.674 158.728 194.901 159.019 195.893 159.659C197.412 160.706 198.347 162.394 198.347 164.256C198.288 165.943 197.47 167.572 197.704 169.201C197.821 170.307 198.463 171.412 198.288 172.518C198.113 173.856 196.886 174.787 195.66 175.252C194.433 175.718 193.032 175.893 191.863 176.474C190.871 176.94 189.819 177.638 188.826 177.347C187.95 177.056 187.483 176.125 187.133 175.311C186.782 174.322 186.49 173.274 186.315 172.169C186.198 171.354 186.081 170.54 185.614 169.899C185.03 169.201 184.154 168.794 183.219 168.91C181.175 169.085 180.007 172.576 178.138 171.761C177.204 171.354 176.503 170.132 175.743 169.492C174.984 168.678 174.05 168.038 172.998 167.514Z" fill="#2F2E41"/>
<path d="M209.911 192.766C209.911 192.766 214.992 194.57 217.036 201.668C219.081 208.767 218.321 213.596 218.321 213.596L207.633 215.4L209.911 192.766Z" fill="#3F3D56"/>
<path d="M176.035 185.435C176.035 185.435 166.866 183.398 165.581 192.01C164.763 197.828 164.354 203.647 164.296 209.523C164.296 209.523 172.94 205.45 176.795 209.523L176.035 185.435Z" fill="#3F3D56"/>
</g>
<defs>
<clipPath id="clip0">
<rect width="469" height="359" fill="white"/>
</clipPath>
</defs>
</svg>
