<svg width="340" height="259" viewBox="0 0 340 259" fill="none" xmlns="http://www.w3.org/2000/svg">
<path d="M154.542 108.396C154.542 108.396 188.404 110.024 190.444 121.822C192.484 133.621 150.87 123.043 150.87 123.043L154.542 108.396Z" fill="#A0616A"/>
<path d="M101.096 70.967C101.096 70.967 106.808 72.5944 111.295 82.3586C115.783 92.1228 124.759 101.073 124.759 101.073L161.069 107.99L154.95 126.297L120.271 121.822L98.6479 109.617L101.096 70.967Z" fill="#575A89"/>
<path opacity="0.1" d="M101.096 70.967C101.096 70.967 106.808 72.5944 111.295 82.3586C115.783 92.1228 124.759 101.073 124.759 101.073L161.069 107.99L154.95 126.297L120.271 121.822L98.6479 109.617L101.096 70.967Z" fill="black"/>
<path d="M302.844 37.8094H166.985V38.6231H302.844V37.8094Z" fill="#3F3D56"/>
<path d="M334.259 135.858H12.3591V258.317H334.259V135.858Z" fill="#3F3D56"/>
<path d="M47.2418 52.2522L50.9136 75.4421L76.2087 76.6627L73.3528 42.488L47.2418 52.2522Z" fill="#A0616A"/>
<path d="M20.5188 207.055L19.2948 258.317H57.6454L63.3571 237.975L67.845 258.317H107.827C107.827 258.317 108.643 199.732 104.156 199.325C99.6678 198.918 20.5188 207.055 20.5188 207.055Z" fill="#2F2E41"/>
<path d="M55.4015 58.355C67.5689 58.355 77.4326 48.5189 77.4326 36.3855C77.4326 24.2522 67.5689 14.4161 55.4015 14.4161C43.234 14.4161 33.3703 24.2522 33.3703 36.3855C33.3703 48.5189 43.234 58.355 55.4015 58.355Z" fill="#A0616A"/>
<path d="M18.2748 209.293L29.6984 153.149L14.603 78.697L49.3691 65.6879L66.417 63.6439L74.9874 62.0485L81.1045 63.6439C81.1045 63.6439 105.584 69.7465 106.807 74.2217C108.031 78.697 101.912 115.313 101.912 115.313L96.1999 145.419L108.847 199.529C108.847 199.529 56.2174 217.43 19.0908 209.293H18.2748Z" fill="#575A89"/>
<path opacity="0.1" d="M33.5743 99.2424V114.295L81.7132 114.361L36.0222 109.413L33.5743 99.2424Z" fill="black"/>
<path opacity="0.1" d="M29.4398 140.816L89.8761 132.197L29.4398 149.266V140.816Z" fill="black"/>
<path opacity="0.1" d="M125.371 101.277L118.892 124.558L129.859 102.045L125.371 101.277Z" fill="black"/>
<path d="M73.5327 14.3525L77.584 12.7351C77.584 12.7351 69.1131 3.43527 57.3274 4.24399L60.6422 0.604879C60.6422 0.604879 52.5395 -2.62982 45.1735 5.86131C41.3013 10.3249 36.8212 15.5717 34.0283 21.482H29.6896L31.5004 25.458L25.1626 29.434L31.6677 28.7199C31.2801 30.8972 31.2206 33.12 31.4912 35.3148C31.7703 37.5103 32.8938 39.5118 34.6247 40.8969C34.6247 40.8969 39.6491 30.5261 39.6491 28.9087V32.9522C39.6491 32.9522 43.7004 29.3131 43.7004 26.8871L45.9102 29.7175L47.015 25.2697L60.6422 29.7175L58.4324 26.0784L66.9033 27.2914L63.5885 22.8436C63.5885 22.8436 73.1643 28.1001 73.5327 32.5479C73.9009 36.9956 76.7038 41.2101 76.7038 41.2101C76.7038 41.2101 84.2134 20.4176 73.5327 14.3525Z" fill="#2F2E41"/>
<path d="M251.846 95.5808H95.18V258.724H251.846V95.5808Z" fill="#D0CDE1"/>
<path d="M227.367 131.383H111.499V147.656H227.367V131.383Z" fill="#03A595"/>
<path d="M207.301 174.508H131.419V182.645H207.301V174.508Z" fill="#03A595"/>
<path d="M207.448 188.747H131.565V196.884H207.448V188.747Z" fill="#03A595"/>
<path d="M169.653 202.987H131.711V211.124H169.653V202.987Z" fill="#03A595"/>
<path d="M229.407 244.078H211.864V252.215H229.407V244.078Z" fill="#03A595"/>
<path d="M83.9604 116.126C83.9604 116.126 119.455 110.837 124.759 118.567C130.063 126.297 87.2243 130.366 87.2243 130.366L83.9604 116.126Z" fill="#A0616A"/>
<path d="M18.6829 78.2901H16.1265C15.0751 78.2871 14.0614 78.6805 13.2886 79.3914C10.862 81.6383 5.73088 87.4366 3.58743 97.8184C0.73154 111.651 -4.16428 138.503 6.85131 140.537C17.8669 142.571 90.0802 132.807 90.0802 132.807L84.7764 114.092L32.5543 114.499C32.5543 114.499 33.3703 105.548 31.7384 99.8526C30.1064 94.1569 18.6829 78.2901 18.6829 78.2901Z" fill="#575A89"/>
<path d="M166.985 54.8969C176.224 54.8969 183.713 47.4287 183.713 38.2164C183.713 29.004 176.224 21.5359 166.985 21.5359C157.747 21.5359 150.258 29.004 150.258 38.2164C150.258 47.4287 157.747 54.8969 166.985 54.8969Z" fill="#D0CDE1"/>
<path d="M243.278 54.8969C252.517 54.8969 260.006 47.4287 260.006 38.2164C260.006 29.004 252.517 21.5359 243.278 21.5359C234.04 21.5359 226.551 29.004 226.551 38.2164C226.551 47.4287 234.04 54.8969 243.278 54.8969Z" fill="#3F3D56"/>
<path d="M319.572 55.3035C316.182 55.3035 312.87 54.3014 310.052 52.4238C307.234 50.5462 305.037 47.8776 303.741 44.7553C302.444 41.633 302.104 38.1973 302.765 34.8827C303.427 31.568 305.059 28.5234 307.455 26.1337C309.851 23.744 312.905 22.1166 316.229 21.4572C319.553 20.7979 322.998 21.1363 326.129 22.4296C329.26 23.7229 331.936 25.913 333.819 28.723C335.702 31.533 336.707 34.8367 336.707 38.2162C336.702 42.7465 334.895 47.0898 331.682 50.2931C328.47 53.4965 324.115 55.2984 319.572 55.3035ZM319.572 21.9426C316.344 21.9426 313.189 22.897 310.505 24.6852C307.821 26.4734 305.73 29.015 304.494 31.9886C303.259 34.9622 302.936 38.2343 303.566 41.3911C304.195 44.5478 305.75 47.4475 308.032 49.7234C310.314 51.9993 313.222 53.5492 316.388 54.1772C319.553 54.8051 322.835 54.4828 325.817 53.2511C328.799 52.0194 331.347 49.9336 333.141 47.2574C334.934 44.5812 335.891 41.4349 335.891 38.2162C335.886 33.9017 334.165 29.7653 331.106 26.7144C328.046 23.6636 323.898 21.9475 319.572 21.9426Z" fill="#3F3D56"/>
<path d="M164.679 45.3128L157.43 35.6751L160.041 33.7219L165.032 40.3575L187.977 17.4775L190.284 19.7786L164.679 45.3128Z" fill="#3F3D56"/>
<path d="M339.888 257.868H6.72998V259H339.888V257.868Z" fill="#3F3D56"/>
</svg>
